<svg width="24" height="24" viewBox="0 0 24 24" fill="none" xmlns="http://www.w3.org/2000/svg">
<rect width="24" height="24" rx="12" fill="#7DD3FC"/>
<path d="M14.94 15.6471H15.5283V16.2353H14.94V15.6471ZM14.3518 15.6471H14.94V16.2353H14.3518V15.6471ZM13.7636 15.6471H14.3518V16.2353H13.7636V15.6471ZM13.7636 16.2353H14.3518V16.8235H13.7636V16.2353ZM14.3518 16.2353H14.94V16.8235H14.3518V16.2353ZM13.7636 16.8235H14.3518V17.4118H13.7636V16.8235ZM13.1753 16.8235H13.7636V17.4118H13.1753V16.8235ZM14.3518 16.8235H14.94V17.4118H14.3518V16.8235ZM13.1753 17.4118H13.7636V18H13.1753V17.4118ZM12.5871 17.4118H13.1753V18H12.5871V17.4118ZM11.9989 17.4118H12.5871V18H11.9989V17.4118ZM11.4106 17.4118H11.9989V18H11.4106V17.4118ZM10.8224 17.4118H11.4106V18H10.8224V17.4118ZM10.2341 17.4118H10.8224V18H10.2341V17.4118ZM9.64591 17.4118H10.2341V18H9.64591V17.4118ZM9.64591 16.8235H10.2341V17.4118H9.64591V16.8235ZM9.05767 16.8235H9.64591V17.4118H9.05767V16.8235ZM8.46944 16.8235H9.05767V17.4118H8.46944V16.8235ZM8.46944 16.2353H9.05767V16.8235H8.46944V16.2353ZM9.05767 16.2353H9.64591V16.8235H9.05767V16.2353ZM9.64591 16.2353H10.2341V16.8235H9.64591V16.2353ZM10.2341 16.2353H10.8224V16.8235H10.2341V16.2353ZM10.8224 16.2353H11.4106V16.8235H10.8224V16.2353ZM11.4106 16.2353H11.9989V16.8235H11.4106V16.2353ZM11.9989 16.2353H12.5871V16.8235H11.9989V16.2353ZM12.5871 16.2353H13.1753V16.8235H12.5871V16.2353ZM13.1753 16.2353H13.7636V16.8235H13.1753V16.2353ZM12.5871 16.8235H13.1753V17.4118H12.5871V16.8235ZM11.9989 16.8235H12.5871V17.4118H11.9989V16.8235ZM11.4106 16.8235H11.9989V17.4118H11.4106V16.8235ZM10.8224 16.8235H11.4106V17.4118H10.8224V16.8235ZM10.2341 16.8235H10.8224V17.4118H10.2341V16.8235ZM9.05767 15.6471H9.64591V16.2353H9.05767V15.6471ZM8.46944 15.6471H9.05767V16.2353H8.46944V15.6471ZM7.8812 15.6471H8.46944V16.2353H7.8812V15.6471ZM9.05767 15.0588H9.64591V15.6471H9.05767V15.0588ZM9.64591 15.0588H10.2341V15.6471H9.64591V15.0588ZM10.2341 15.0588H10.8224V15.6471H10.2341V15.0588ZM10.2341 15.6471H10.8224V16.2353H10.2341V15.6471ZM9.64591 15.6471H10.2341V16.2353H9.64591V15.6471ZM8.46944 15.0588H9.05767V15.6471H8.46944V15.0588ZM8.46944 14.4706H9.05767V15.0588H8.46944V14.4706ZM7.8812 14.4706H8.46944V15.0588H7.8812V14.4706ZM7.8812 13.8824H8.46944V14.4706H7.8812V13.8824ZM7.8812 15.0588H8.46944V15.6471H7.8812V15.0588ZM7.8812 13.2941H8.46944V13.8824H7.8812V13.2941ZM8.46944 13.2941H9.05767V13.8824H8.46944V13.2941ZM9.05767 13.2941H9.64591V13.8824H9.05767V13.2941ZM9.64591 13.2941H10.2341V13.8824H9.64591V13.2941ZM9.64591 13.8824H10.2341V14.4706H9.64591V13.8824ZM9.64591 14.4706H10.2341V15.0588H9.64591V14.4706ZM9.05767 13.8824H9.64591V14.4706H9.05767V13.8824ZM8.46944 13.8824H9.05767V14.4706H8.46944V13.8824ZM9.05767 14.4706H9.64591V15.0588H9.05767V14.4706ZM10.8224 15.6471H11.4106V16.2353H10.8224V15.6471ZM11.4106 15.6471H11.9989V16.2353H11.4106V15.6471ZM11.9989 15.6471H12.5871V16.2353H11.9989V15.6471ZM12.5871 15.6471H13.1753V16.2353H12.5871V15.6471ZM13.1753 15.6471H13.7636V16.2353H13.1753V15.6471ZM13.1753 15.0588H13.7636V15.6471H13.1753V15.0588ZM12.5871 15.0588H13.1753V15.6471H12.5871V15.0588ZM13.7636 15.0588H14.3518V15.6471H13.7636V15.0588ZM14.3518 15.0588H14.94V15.6471H14.3518V15.0588ZM14.3518 14.4706H14.94V15.0588H14.3518V14.4706ZM14.94 14.4706H15.5283V15.0588H14.94V14.4706ZM14.94 13.8824H15.5283V14.4706H14.94V13.8824ZM14.94 15.0588H15.5283V15.6471H14.94V15.0588ZM14.94 13.2941H15.5283V13.8824H14.94V13.2941ZM14.94 12.7059H15.5283V13.2941H14.94V12.7059ZM14.94 12.1176H15.5283V12.7059H14.94V12.1176ZM14.94 11.5294H15.5283V12.1176H14.94V11.5294ZM13.1753 11.5294H13.7636V12.1176H13.1753V11.5294ZM13.1753 12.1176H13.7636V12.7059H13.1753V12.1176ZM13.1753 12.7059H13.7636V13.2941H13.1753V12.7059ZM13.1753 13.2941H13.7636V13.8824H13.1753V13.2941ZM13.1753 13.8824H13.7636V14.4706H13.1753V13.8824ZM13.1753 14.4706H13.7636V15.0588H13.1753V14.4706ZM13.7636 14.4706H14.3518V15.0588H13.7636V14.4706ZM13.7636 13.8824H14.3518V14.4706H13.7636V13.8824ZM14.3518 13.8824H14.94V14.4706H14.3518V13.8824ZM14.3518 13.2941H14.94V13.8824H14.3518V13.2941ZM14.3518 12.7059H14.94V13.2941H14.3518V12.7059ZM14.3518 12.1176H14.94V12.7059H14.3518V12.1176ZM13.7636 11.5294H14.3518V12.1176H13.7636V11.5294ZM13.7636 12.1176H14.3518V12.7059H13.7636V12.1176ZM13.7636 12.7059H14.3518V13.2941H13.7636V12.7059ZM13.7636 13.2941H14.3518V13.8824H13.7636V13.2941ZM14.3518 11.5294H14.94V12.1176H14.3518V11.5294ZM14.94 9.76471H15.5283V10.3529H14.94V9.76471ZM14.94 9.17647H15.5283V9.76471H14.94V9.17647ZM14.94 8.58824H15.5283V9.17647H14.94V8.58824ZM14.94 8H15.5283V8.58824H14.94V8ZM14.3518 8H14.94V8.58824H14.3518V8ZM14.3518 7.41177H14.94V8H14.3518V7.41177ZM14.3518 6.82353H14.94V7.41177H14.3518V6.82353ZM13.7636 6.82353H14.3518V7.41177H13.7636V6.82353ZM13.1753 6.82353H13.7636V7.41177H13.1753V6.82353ZM13.7636 9.76471H14.3518V10.3529H13.7636V9.76471ZM13.7636 9.17647H14.3518V9.76471H13.7636V9.17647ZM14.3518 9.17647H14.94V9.76471H14.3518V9.17647ZM14.3518 8.58824H14.94V9.17647H14.3518V8.58824ZM14.3518 9.76471H14.94V10.3529H14.3518V9.76471ZM13.1753 9.76471H13.7636V10.3529H13.1753V9.76471ZM13.7636 8.58824H14.3518V9.17647H13.7636V8.58824ZM13.1753 8.58824H13.7636V9.17647H13.1753V8.58824ZM13.1753 9.17647H13.7636V9.76471H13.1753V9.17647ZM12.5871 8.58824H13.1753V9.17647H12.5871V8.58824ZM12.5871 8H13.1753V8.58824H12.5871V8ZM13.1753 7.41177H13.7636V8H13.1753V7.41177ZM13.7636 7.41177H14.3518V8H13.7636V7.41177ZM13.7636 8H14.3518V8.58824H13.7636V8ZM13.1753 8H13.7636V8.58824H13.1753V8ZM12.5871 7.41177H13.1753V8H12.5871V7.41177ZM12.5871 6.82353H13.1753V7.41177H12.5871V6.82353ZM12.5871 6.23529H13.1753V6.82353H12.5871V6.23529ZM13.1753 6.23529H13.7636V6.82353H13.1753V6.23529ZM11.9989 6.23529H12.5871V6.82353H11.9989V6.23529ZM11.4106 6.23529H11.9989V6.82353H11.4106V6.23529ZM10.8224 6.23529H11.4106V6.82353H10.8224V6.23529ZM10.2341 6.23529H10.8224V6.82353H10.2341V6.23529ZM10.2341 6.82353H10.8224V7.41177H10.2341V6.82353ZM9.64591 6.82353H10.2341V7.41177H9.64591V6.82353ZM9.64591 6.23529H10.2341V6.82353H9.64591V6.23529ZM9.05767 6.82353H9.64591V7.41177H9.05767V6.82353ZM8.46944 6.82353H9.05767V7.41177H8.46944V6.82353ZM8.46944 7.41177H9.05767V8H8.46944V7.41177ZM8.46944 8H9.05767V8.58824H8.46944V8ZM7.8812 8H8.46944V8.58824H7.8812V8ZM7.8812 8.58824H8.46944V9.17647H7.8812V8.58824ZM8.46944 8.58824H9.05767V9.17647H8.46944V8.58824ZM9.05767 8.58824H9.64591V9.17647H9.05767V8.58824ZM9.64591 8.58824H10.2341V9.17647H9.64591V8.58824ZM10.2341 8.58824H10.8224V9.17647H10.2341V8.58824ZM10.2341 8H10.8224V8.58824H10.2341V8ZM10.8224 8H11.4106V8.58824H10.8224V8ZM11.4106 8H11.9989V8.58824H11.4106V8ZM11.9989 8H12.5871V8.58824H11.9989V8ZM11.9989 6.82353H12.5871V7.41177H11.9989V6.82353ZM11.9989 7.41177H12.5871V8H11.9989V7.41177ZM11.4106 7.41177H11.9989V8H11.4106V7.41177ZM10.8224 7.41177H11.4106V8H10.8224V7.41177ZM11.4106 6.82353H11.9989V7.41177H11.4106V6.82353ZM10.8224 6.82353H11.4106V7.41177H10.8224V6.82353ZM10.2341 7.41177H10.8224V8H10.2341V7.41177ZM9.64591 7.41177H10.2341V8H9.64591V7.41177ZM9.64591 8H10.2341V8.58824H9.64591V8ZM9.05767 8H9.64591V8.58824H9.05767V8ZM9.05767 7.41177H9.64591V8H9.05767V7.41177ZM9.05767 9.17647H9.64591V9.76471H9.05767V9.17647ZM9.05767 9.76471H9.64591V10.3529H9.05767V9.76471ZM9.05767 10.3529H9.64591V10.9412H9.05767V10.3529ZM9.05767 10.9412H9.64591V11.5294H9.05767V10.9412ZM9.64591 10.9412H10.2341V11.5294H9.64591V10.9412ZM9.64591 11.5294H10.2341V12.1176H9.64591V11.5294ZM9.64591 10.3529H10.2341V10.9412H9.64591V10.3529ZM9.64591 9.76471H10.2341V10.3529H9.64591V9.76471ZM9.64591 9.17647H10.2341V9.76471H9.64591V9.17647ZM9.64591 12.1176H10.2341V12.7059H9.64591V12.1176ZM9.64591 12.7059H10.2341V13.2941H9.64591V12.7059ZM9.05767 12.7059H9.64591V13.2941H9.05767V12.7059ZM8.46944 12.7059H9.05767V13.2941H8.46944V12.7059ZM7.8812 12.1176H8.46944V12.7059H7.8812V12.1176ZM7.8812 12.7059H8.46944V13.2941H7.8812V12.7059ZM7.8812 11.5294H8.46944V12.1176H7.8812V11.5294ZM7.8812 10.9412H8.46944V11.5294H7.8812V10.9412ZM7.8812 10.3529H8.46944V10.9412H7.8812V10.3529ZM7.8812 9.76471H8.46944V10.3529H7.8812V9.76471ZM7.8812 9.17647H8.46944V9.76471H7.8812V9.17647ZM8.46944 9.76471H9.05767V10.3529H8.46944V9.76471ZM8.46944 10.3529H9.05767V10.9412H8.46944V10.3529ZM8.46944 10.9412H9.05767V11.5294H8.46944V10.9412ZM8.46944 11.5294H9.05767V12.1176H8.46944V11.5294ZM8.46944 12.1176H9.05767V12.7059H8.46944V12.1176ZM9.05767 12.1176H9.64591V12.7059H9.05767V12.1176ZM9.05767 11.5294H9.64591V12.1176H9.05767V11.5294ZM8.46944 9.17647H9.05767V9.76471H8.46944V9.17647ZM12.5871 11.5294H13.1753V12.1176H12.5871V11.5294ZM11.9989 11.5294H12.5871V12.1176H11.9989V11.5294ZM11.4106 11.5294H11.9989V12.1176H11.4106V11.5294ZM11.4106 12.1176H11.9989V12.7059H11.4106V12.1176ZM11.4106 12.7059H11.9989V13.2941H11.4106V12.7059ZM11.4106 13.2941H11.9989V13.8824H11.4106V13.2941ZM11.9989 13.2941H12.5871V13.8824H11.9989V13.2941ZM12.5871 13.2941H13.1753V13.8824H12.5871V13.2941ZM12.5871 12.7059H13.1753V13.2941H12.5871V12.7059ZM11.9989 12.7059H12.5871V13.2941H11.9989V12.7059ZM11.9989 12.1176H12.5871V12.7059H11.9989V12.1176ZM12.5871 12.1176H13.1753V12.7059H12.5871V12.1176Z" fill="white"/>
</svg>
